<svg xmlns="http://www.w3.org/2000/svg" xml:space="preserve" width="512" height="512" id="gemstone">
  <path fill="#FFC035" d="m402.19 182.73 64.62 87.71H338.76z"></path>
  <path fill="#C98B0E" d="m402.19 182.73-63.43 87.71L256 182.73z"></path>
  <path fill="#FFC035" d="m256 182.73 82.76 87.71H173.24z"></path>
  <path fill="#C98B0E" d="m256 182.73-82.76 87.71-63.43-87.71z"></path>
  <path fill="#FFC035" d="m109.81 182.73 63.43 87.71H45.2z"></path>
  <path fill="#C98B0E" d="M256 479.87 45.2 270.44h128.04z"></path>
  <path fill="#FFC035" d="M338.76 270.44 256 479.87l-82.76-209.43z"></path>
  <path fill="#C98B0E" d="M466.81 270.44 256 479.87l82.76-209.43z"></path>
  <path fill="none" d="M256 479.87 45.2 270.44l64.61-87.71H256M256 479.87l210.81-209.43-64.62-87.71H256M45.2 270.44h421.61M256 479.87l-82.76-209.43M256 479.87l82.76-209.43M173.24 270.44l-63.43-87.71M173.24 270.44 256 182.73M256 182.73l82.76 87.71M338.76 270.44l63.43-87.71"></path>
  <path fill="#FFC035" d="M255.36 92.77a4 4 0 0 1-4-4V32.13a4 4 0 0 1 8 0v56.64a4 4 0 0 1-4 4zM201.579 103.221a4.002 4.002 0 0 1-3.815-2.801l-16.74-53.22a4 4 0 1 1 7.632-2.4l16.74 53.22a4 4 0 0 1-3.817 5.201zM154.144 134.32a3.997 3.997 0 0 1-3.242-1.652l-31.46-43.39a4 4 0 1 1 6.476-4.696l31.46 43.39a4 4 0 0 1-3.234 6.348zM307.861 103.221a4 4 0 0 1-3.816-5.201l16.739-53.22a4 4 0 1 1 7.631 2.4l-16.739 53.22a4.002 4.002 0 0 1-3.815 2.801zM355.297 134.32a4 4 0 0 1-3.236-6.349l31.47-43.39a4 4 0 0 1 6.477 4.697l-31.47 43.39a3.996 3.996 0 0 1-3.241 1.652z"></path>
  <linearGradient id="a" x1="256.005" x2="256.005" y1="270.44" y2="479.87" gradientUnits="userSpaceOnUse">
    <stop offset="0"></stop>
    <stop offset="1" stop-color="#FFF" stop-opacity="0"></stop>
  </linearGradient>
  <path fill="url(#a)" d="M466.81 270.44 256 479.87 45.2 270.44z" opacity=".2"></path>
</svg>
